# xmcd
#
# Track frame offsets:
#	150
#	11689
#	24236
#	37180
#	53659
#	66608
#	78877
#	93287
#	105952
#	116157
#	130736
#	142766
#	152576
#	165310
#	179164
#	192496
#	206363
#	222843
#	241606
#	257023
#	275623
#	290366
#	307521
#	325161
#
# Disc length: 4534 seconds
#
# Revision: 1
# Processed by: cddbd v1.5.2PL0 Copyright (c) Steve Scherf et al.
# Submitted via: audiograbber 1.83.01
#
DISCID=4111b418
DTITLE=Freddie Fender - The Golden Voice of THE texax Gulf Coast
DYEAR=2014
DGENRE=Country
TTITLE0=Before The Next Teardrop Falls
TTITLE1=Wasted Days And Wasted Nights
TTITLE2=I Love My Rancho Grande
TTITLE3=Secret Love
TTITLE4=You'll Lose A Good Thing
TTITLE5=Vaya Con Dios
TTITLE6=Wild Side Of Life
TTITLE7=Sugar Coated Love
TTITLE8=The Rains Came
TTITLE9=Since I Met You Baby
TTITLE10=The Clock
TTITLE11=When It Really Rains It Really Pours
TTITLE12=Tell It Like It Is
TTITLE13=These Arms Of Mine
TTITLE14=It's Gonna Be Easy
TTITLE15=Across The Borderline
TTITLE16=A Man Can Cry w/Texas Tornados
TTITLE17=Holy One  w/Texas Tornados
TTITLE18=Trying  w/Texas Tornados
TTITLE19=Ando Muy Borracho  w/Texas Tornados
TTITLE20=The Gardens  w/Texas Tornados
TTITLE21=Pancho And Lefty w/Townes van Zandt
TTITLE22=Piensa En Mi w/Los Super Seven
TTITLE23=Perfidia (as Baldemar Huerta)
EXTD=
EXTT0=
EXTT1=
EXTT2=
EXTT3=
EXTT4=
EXTT5=
EXTT6=
EXTT7=
EXTT8=
EXTT9=
EXTT10=
EXTT11=
EXTT12=
EXTT13=
EXTT14=
EXTT15=
EXTT16=
EXTT17=
EXTT18=
EXTT19=
EXTT20=
EXTT21=
EXTT22=
EXTT23=
PLAYORDER=
